# xmcd
#
# Track frame offsets:
#	150
#	14767
#	30189
#	45681
#	62591
#	77313
#	92305
#	109001
#	127361
#	145005
#	159898
#
# Disc length: 2410 seconds
#
# Revision: 0
# Processed by: cddbd v1.5.2PL0 Copyright (c) Steve Scherf et al.
# Submitted via: EasyCDDAExtractor 12.0.1.1
#
DISCID=7c09680b
DTITLE=Karla Davis - 360
DYEAR=2012
DGENRE=Country
TTITLE0=Carolina
TTITLE1=Just One Kiss
TTITLE2=Black and Blue
TTITLE3=Unbroken
TTITLE4=Like Home
TTITLE5=In Love
TTITLE6=Nobody
TTITLE7=Don't Give Me Roses
TTITLE8=Back Where We Belong
TTITLE9=Mississippi Thing
TTITLE10=When I'm Gone
EXTD=
EXTT0=
EXTT1=
EXTT2=
EXTT3=
EXTT4=
EXTT5=
EXTT6=
EXTT7=
EXTT8=
EXTT9=
EXTT10=
PLAYORDER=
